<svg id="Capa_1" enable-background="new 0 0 512 512" height="512" viewBox="0 0 512 512" width="512" xmlns="http://www.w3.org/2000/svg"><g><g><path d="m506.241 144.365c3.768-5.386 5.759-11.703 5.759-18.27v-.293c0-15.251-10.777-28.028-25.114-31.13l19.929-24.911c5.646-7.058 6.766-16.883 2.851-25.031-3.915-8.147-12.287-13.412-21.328-13.412h-96.976c-13.047 0-23.662 10.615-23.662 23.662 0 13.048 10.615 23.663 23.662 23.663h47.743l-25.241 31.551c-34.007-6.44-95.936-16.241-157.864-16.241-21.801 0-45.38 1.213-70.083 3.604-4.123.398-7.142 4.064-6.742 8.188.398 4.122 4.064 7.157 8.188 6.742 24.225-2.345 47.317-3.534 68.638-3.534 56.245 0 112.633 8.273 147.233 14.529l-30.349 37.937c-5.646 7.058-6.765 16.883-2.85 25.03 3.915 8.148 12.287 13.413 21.327 13.413h94.356c5.454 22.624 11.283 54.51 11.283 87.461 0 42.169-9.655 82.834-15.411 103.323-3.892 13.864-1.385 28.589 6.88 40.402l5.48 7.816c1.996 2.86 3.051 6.207 3.051 9.678v.29c0 4.503-1.752 8.735-4.934 11.916-3.181 3.182-7.417 4.934-11.927 4.934-3.617 0-7.056-1.124-9.955-3.259l-9.219-6.759c-10.857-7.962-24.665-10.992-37.888-8.302-10.849 2.202-22.021 4.262-33.208 6.121-4.086.679-6.848 4.542-6.169 8.628s4.544 6.851 8.628 6.169c11.361-1.888 22.711-3.98 33.734-6.219 9.093-1.846 18.577.231 26.032 5.699l9.207 6.75c5.483 4.037 11.996 6.171 18.837 6.171 8.517 0 16.52-3.312 22.534-9.326 6.014-6.015 9.326-14.014 9.326-22.523v-.29c0-6.556-1.988-12.87-5.759-18.275l-5.485-7.824c-5.675-8.11-7.397-18.223-4.726-27.742 5.964-21.229 15.97-63.41 15.97-107.378 0-34.28-6.007-67.302-11.646-90.751 6.965-4.124 11.647-11.71 11.647-20.372 0-9.222-5.306-17.223-13.022-21.125.546-.982 1.126-1.947 1.775-2.876zm-31.337-34.578c1.698-.557 3.462-.839 5.24-.839 9.294 0 16.855 7.561 16.855 16.854v.293c0 3.475-1.055 6.819-3.047 9.667l-5.492 7.839c-1.965 2.815-3.608 5.806-4.92 8.936h-42.946l34.15-42.688c.054-.019.107-.045.16-.062zm-91.35 70.166c-1.433-2.983-1.023-6.581 1.043-9.164l75.969-94.96c1.801-2.252 2.152-5.336.903-7.935s-3.877-4.251-6.76-4.251h-63.348c-4.776 0-8.662-3.887-8.662-8.663s3.886-8.662 8.662-8.662h96.976c3.311 0 6.375 1.927 7.809 4.909 1.433 2.983 1.023 6.58-1.044 9.164l-75.968 94.96c-1.801 2.252-2.152 5.336-.903 7.935s3.877 4.251 6.76 4.251h63.347c4.776 0 8.663 3.887 8.663 8.663s-3.887 8.662-8.663 8.662h-96.976c-3.31 0-6.375-1.927-7.808-4.909z"/><path d="m355.514 458.606c-35.736 4.695-69.218 7.076-99.514 7.076-66.908 0-133.398-11.478-167.077-18.319-13.222-2.687-27.031.341-37.888 8.301l-9.229 6.768c-1.432 1.053-3.009 1.862-4.721 2.417-1.682.554-3.439.834-5.225.834-9.297 0-16.86-7.559-16.86-16.85v-.29c0-3.471 1.055-6.817 3.042-9.664l5.493-7.836c8.261-11.808 10.768-26.532 6.876-40.398-5.756-20.488-15.411-61.153-15.411-103.322 0-42.179 9.655-82.845 15.411-103.334 3.892-13.864 1.385-28.589-6.88-40.402l-5.48-7.816c-1.996-2.86-3.051-6.207-3.051-9.678v-.29c0-4.503 1.752-8.734 4.934-11.916 3.181-3.182 7.417-4.934 11.927-4.934 3.617 0 7.056 1.124 9.955 3.259l9.219 6.759c10.857 7.963 24.669 10.991 37.885 8.303 14.328-2.903 37.056-7.128 63.966-10.768 4.105-.556 6.982-4.333 6.428-8.438-.556-4.104-4.34-6.983-8.438-6.427-27.312 3.695-50.388 7.984-64.939 10.933-9.085 1.846-18.575-.229-26.031-5.699l-9.207-6.75c-5.482-4.037-11.996-6.171-18.837-6.171-8.517 0-16.52 3.312-22.534 9.327-6.016 6.014-9.328 14.012-9.328 22.521v.29c0 6.556 1.988 12.87 5.759 18.275l5.485 7.824c5.675 8.11 7.397 18.223 4.726 27.742-5.964 21.231-15.97 63.413-15.97 107.39 0 43.968 10.006 86.148 15.97 107.376 2.672 9.521.949 19.634-4.722 27.738l-5.498 7.844c-3.762 5.391-5.75 11.706-5.75 18.261v.29c0 17.562 14.293 31.85 31.86 31.85 3.382 0 6.718-.533 9.879-1.574 3.212-1.04 6.225-2.586 8.945-4.587l9.221-6.761c7.455-5.468 16.945-7.542 26.031-5.698 34.231 6.954 101.844 18.62 170.063 18.62 30.947 0 65.086-2.424 101.467-7.203 4.107-.54 6.999-4.307 6.46-8.413-.539-4.108-4.325-6.992-8.412-6.46z"/><path d="m202.575 260.905c-3.915-8.147-12.287-13.412-21.327-13.412h-64.65c-13.048 0-23.663 10.615-23.663 23.662 0 13.048 10.615 23.663 23.663 23.663h15.417l-33.895 42.369c-5.646 7.059-6.766 16.884-2.85 25.031s12.287 13.412 21.327 13.412h64.65c13.047 0 23.662-10.615 23.662-23.662 0-13.048-10.615-23.663-23.662-23.663h-15.417l33.896-42.369c5.646-7.059 6.765-16.884 2.849-25.031zm-14.562 15.661-43.644 54.554c-1.801 2.252-2.152 5.336-.903 7.935s3.877 4.251 6.76 4.251h31.022c4.776 0 8.662 3.887 8.662 8.663s-3.886 8.662-8.662 8.662h-64.65c-3.31 0-6.374-1.928-7.808-4.91s-1.024-6.579 1.043-9.163l43.643-54.554c1.801-2.252 2.152-5.336.903-7.935s-3.877-4.251-6.76-4.251h-31.021c-4.776 0-8.663-3.887-8.663-8.663s3.887-8.662 8.663-8.662h64.65c3.31 0 6.374 1.927 7.808 4.91 1.433 2.982 1.024 6.579-1.043 9.163z"/><path d="m348.04 154.834c-3.914-8.147-12.287-13.412-21.33-13.412h-80.81c-13.046 0-23.66 10.618-23.66 23.67 0 13.046 10.614 23.66 23.66 23.66h31.575l-50.057 62.571c-5.641 7.065-6.759 16.889-2.85 25.025 3.913 8.148 12.286 13.413 21.331 13.413h11.26c4.143 0 7.5-3.357 7.5-7.5s-3.357-7.5-7.5-7.5h-11.259c-3.312 0-6.378-1.926-7.811-4.908-1.431-2.979-1.019-6.579 1.047-9.166l59.8-74.75c1.801-2.252 2.152-5.336.903-7.935s-3.877-4.251-6.76-4.251h-47.179c-4.775 0-8.66-3.885-8.66-8.66 0-4.78 3.885-8.67 8.66-8.67h80.81c3.312 0 6.378 1.927 7.81 4.907 1.433 2.983 1.022 6.582-1.046 9.168l-59.8 74.761c-1.801 2.251-2.152 5.335-.903 7.934s3.877 4.251 6.76 4.251h47.18c4.775 0 8.66 3.885 8.66 8.659 0 4.775-3.885 8.66-8.66 8.66h-34.55c-4.143 0-7.5 3.357-7.5 7.5s3.357 7.5 7.5 7.5h34.55c13.046 0 23.66-10.614 23.66-23.66s-10.614-23.659-23.66-23.659h-31.576l50.053-62.575c5.646-7.058 6.766-16.884 2.852-25.033z"/></g></g></svg>